<svg width="41" height="41" viewBox="0 0 41 41" fill="none" xmlns="http://www.w3.org/2000/svg">
<path d="M18.3611 1.30595C19.0054 -0.435284 21.4682 -0.435286 22.1125 1.30595L26.3998 12.8923C26.6024 13.4397 27.034 13.8713 27.5815 14.0739L39.1678 18.3612C40.909 19.0056 40.909 21.4683 39.1678 22.1126L27.5815 26.4C27.034 26.6025 26.6024 27.0342 26.3998 27.5816L22.1125 39.1679C21.4682 40.9092 19.0054 40.9092 18.3611 39.1679L14.0738 27.5816C13.8712 27.0342 13.4396 26.6025 12.8922 26.4L1.30583 22.1126C-0.435406 21.4683 -0.435408 19.0056 1.30583 18.3612L12.8922 14.0739C13.4396 13.8713 13.8712 13.4397 14.0738 12.8923L18.3611 1.30595Z" fill="#2E2E2E"/>
</svg>
