<svg width="384" height="91" viewBox="0 0 384 91" fill="none" xmlns="http://www.w3.org/2000/svg">
<path d="M34.0137 57.02C30.9737 57.14 28.6737 56.52 27.1137 55.16C25.5937 53.8 24.8337 51.84 24.8337 49.28C24.8337 47.72 25.1737 45.8 25.8537 43.52C27.7337 37.76 30.3737 32.72 33.7737 28.4C36.0537 25.52 38.4537 23.1 40.9737 21.14C43.4937 19.18 45.9937 17.7 48.4737 16.7C50.9537 15.66 53.2737 15.14 55.4337 15.14C55.6337 15.14 55.8737 15.16 56.1537 15.2C56.4337 15.2 56.7537 15.22 57.1137 15.26C58.4337 15.46 59.5937 16.04 60.5937 17C61.6337 17.96 62.1537 19.16 62.1537 20.6C62.1537 21.36 61.9937 22.16 61.6737 23C61.2737 24.12 60.2737 25.56 58.6737 27.32C57.1137 29.08 55.1537 30.76 52.7937 32.36C50.4737 33.92 48.0337 35.06 45.4737 35.78C44.6737 35.98 44.0937 36.08 43.7337 36.08C42.3337 36.08 41.6337 35.44 41.6337 34.16C41.6337 32.6 42.6737 30.54 44.7537 27.98C45.3137 27.22 45.8137 26.84 46.2537 26.84C46.4937 26.88 46.6137 27.06 46.6137 27.38C46.5737 27.62 46.3537 28 45.9537 28.52C44.4737 30.48 43.7337 32.08 43.7337 33.32C43.7337 33.8 43.8537 34.16 44.0937 34.4C44.3737 34.64 44.7137 34.72 45.1137 34.64C47.4337 34.16 49.5137 33.32 51.3537 32.12C53.1937 30.92 54.7737 29.48 56.0937 27.8C57.4537 26.08 58.4937 24.28 59.2137 22.4C59.5337 21.56 59.6937 20.8 59.6937 20.12C59.6937 19.12 59.3537 18.36 58.6737 17.84C58.0337 17.28 57.2137 17 56.2137 17C53.7337 17 50.5537 18.28 46.6737 20.84C44.0337 22.56 41.4737 24.64 38.9937 27.08C36.5137 29.52 34.3137 32.16 32.3937 35C30.5137 37.8 29.1137 40.64 28.1937 43.52C27.6337 45.28 27.3537 46.92 27.3537 48.44C27.3537 50.6 27.9337 52.26 29.0937 53.42C30.2937 54.62 31.9537 55.22 34.0737 55.22C36.3937 55.22 39.1737 54.28 42.4137 52.4C44.4537 51.2 46.4737 49.82 48.4737 48.26C50.4737 46.7 52.3337 45.06 54.0537 43.34C55.8137 41.62 57.2937 39.96 58.4937 38.36C58.8137 38.04 59.0737 37.88 59.2737 37.88C59.3937 37.88 59.4537 37.96 59.4537 38.12C59.4537 38.52 59.2937 38.94 58.9737 39.38C58.0137 40.66 56.9137 41.96 55.6737 43.28C54.4737 44.56 53.1137 45.88 51.5937 47.24C49.5937 49.04 47.5337 50.68 45.4137 52.16C43.2937 53.6 41.2537 54.74 39.2937 55.58C37.3337 56.46 35.5737 56.94 34.0137 57.02ZM66.183 54.62C66.103 54.62 66.023 54.6 65.943 54.56C65.863 54.56 65.783 54.54 65.703 54.5C65.143 54.22 64.783 53.82 64.623 53.3C64.463 52.78 64.423 52.12 64.503 51.32C64.583 51 64.663 50.44 64.743 49.64C64.863 48.84 65.003 48.2 65.163 47.72L62.103 50.66L60.423 52.28C59.263 53.44 58.303 54.02 57.543 54.02C57.223 54.02 56.963 53.9 56.763 53.66C56.403 53.22 56.223 52.68 56.223 52.04C56.223 51.2 56.443 50.3 56.883 49.34C57.323 48.38 57.843 47.46 58.443 46.58C59.043 45.66 59.583 44.9 60.063 44.3C61.263 42.82 62.423 41.66 63.543 40.82C64.703 39.98 65.903 39.56 67.143 39.56C67.823 39.56 68.483 39.68 69.123 39.92C69.803 40.16 70.423 40.56 70.983 41.12L71.043 41.18C71.043 41.3 70.943 41.42 70.743 41.54C70.663 41.62 70.583 41.68 70.503 41.72C70.463 41.76 70.423 41.8 70.383 41.84C69.903 42.32 69.363 43.12 68.763 44.24C68.163 45.36 67.643 46.54 67.203 47.78C66.763 48.98 66.543 50.02 66.543 50.9C66.543 51.7 66.743 52.24 67.143 52.52C67.343 52.64 67.563 52.7 67.803 52.7C68.323 52.7 69.043 52.38 69.963 51.74C70.003 51.7 70.083 51.64 70.203 51.56C70.363 51.44 70.583 51.28 70.863 51.08C71.183 50.84 71.443 50.72 71.643 50.72C71.843 50.72 71.943 50.8 71.943 50.96C71.943 51.2 71.783 51.48 71.463 51.8C71.223 52 70.943 52.22 70.623 52.46C70.343 52.7 70.003 52.94 69.603 53.18C69.003 53.62 68.383 53.96 67.743 54.2C67.103 54.48 66.583 54.62 66.183 54.62ZM59.403 50.78C60.243 50.78 61.803 49.54 64.083 47.06C64.683 46.38 65.223 45.74 65.703 45.14C66.183 44.5 66.623 43.88 67.023 43.28C67.743 42.12 67.983 41.32 67.743 40.88C67.623 40.64 67.383 40.52 67.023 40.52C66.583 40.52 65.983 40.76 65.223 41.24C64.463 41.68 63.683 42.26 62.883 42.98C62.123 43.7 61.423 44.42 60.783 45.14C60.343 45.7 59.903 46.48 59.463 47.48C59.023 48.48 58.803 49.3 58.803 49.94C58.803 50.5 59.003 50.78 59.403 50.78ZM73.5265 53.96C72.8065 53.96 72.4465 53.68 72.4465 53.12C72.4465 52.76 72.5665 52.3 72.8065 51.74C73.0865 51.18 73.3665 50.64 73.6465 50.12C74.4065 48.76 75.1065 47.44 75.7465 46.16C76.3865 44.88 77.0065 43.52 77.6065 42.08C77.8865 41.44 78.3065 41.12 78.8665 41.12C79.4665 41.12 79.6465 41.48 79.4065 42.2C79.1665 42.8 78.9265 43.34 78.6865 43.82C77.5665 46.1 77.0065 47.64 77.0065 48.44C77.0065 48.8 77.1265 49.02 77.3665 49.1C77.9265 48.66 78.3465 48.34 78.6265 48.14C78.9065 47.9 79.0665 47.76 79.1065 47.72C79.6665 47.28 80.2865 46.78 80.9665 46.22C81.6865 45.62 82.4665 44.94 83.3065 44.18C84.6265 42.98 85.7265 42.38 86.6065 42.38C87.6865 42.38 88.1465 43.36 87.9865 45.32C87.9465 46.08 87.9465 46.82 87.9865 47.54C88.0265 47.7 88.0465 47.94 88.0465 48.26C88.0465 48.54 88.0465 48.88 88.0465 49.28C88.0465 49.68 88.2865 49.88 88.7665 49.88C89.3265 49.88 89.8465 49.72 90.3265 49.4L91.6465 48.5L92.9665 47.66C93.0465 47.62 93.1865 47.6 93.3865 47.6C93.6265 47.6 93.6265 47.78 93.3865 48.14C90.8665 51.26 88.7865 52.82 87.1465 52.82C86.8265 52.82 86.5065 52.76 86.1865 52.64C85.9065 52.52 85.7065 52.18 85.5865 51.62C85.4665 51.02 85.3865 50.38 85.3465 49.7C85.3465 49.02 85.3465 48.5 85.3465 48.14L85.4065 46.16C85.4065 45.32 85.1865 44.9 84.7465 44.9C83.7065 44.9 81.1465 47.04 77.0665 51.32C76.7465 51.72 76.2465 52.26 75.5665 52.94C74.8865 53.62 74.2065 53.96 73.5265 53.96ZM94.0999 58.58C93.8999 58.58 93.7999 58.4 93.7999 58.04C93.7999 57.96 93.7999 57.84 93.7999 57.68C93.8399 57.56 93.8799 57.42 93.9199 57.26L96.4999 50.78L99.5599 43.22C99.0799 43.18 98.3799 43.2 97.4599 43.28C96.5399 43.32 95.7599 43.4 95.1199 43.52C94.8799 43.56 94.6799 43.6 94.5199 43.64C94.3999 43.64 94.2999 43.64 94.2199 43.64C93.8999 43.64 93.6799 43.5 93.5599 43.22C93.5999 42.98 93.8199 42.76 94.2199 42.56C94.4199 42.48 94.6599 42.42 94.9399 42.38C95.2199 42.3 95.5599 42.22 95.9599 42.14C96.3999 42.06 96.7799 42 97.0999 41.96C97.4599 41.92 97.7199 41.88 97.8799 41.84C98.0799 41.8 98.2799 41.76 98.4799 41.72C98.6799 41.68 98.9199 41.64 99.1999 41.6C99.4399 41.56 99.6999 41.52 99.9799 41.48C100.26 41.44 100.56 41.38 100.88 41.3C101.2 40.86 101.68 40.08 102.32 38.96C102.96 37.84 103.78 36.36 104.78 34.52C105.58 33.04 106.22 31.88 106.7 31.04C107.22 30.16 107.58 29.58 107.78 29.3C108.14 28.82 108.56 28.58 109.04 28.58C109.28 28.58 109.4 28.68 109.4 28.88C109.4 28.92 109.3 29.18 109.1 29.66C108.86 30.06 108.46 30.8 107.9 31.88C107.34 32.96 106.74 34.14 106.1 35.42C105.46 36.7 104.88 37.9 104.36 39.02C103.84 40.14 103.48 40.96 103.28 41.48C103.48 41.44 103.7 41.42 103.94 41.42C104.22 41.42 104.56 41.42 104.96 41.42C105.4 41.42 105.8 41.44 106.16 41.48C106.56 41.48 106.9 41.5 107.18 41.54C107.74 41.66 108.02 41.82 108.02 42.02C108.02 42.1 107.84 42.24 107.48 42.44C107.28 42.52 106.9 42.6 106.34 42.68C105.78 42.76 105.04 42.84 104.12 42.92C103.88 42.92 103.62 42.94 103.34 42.98C103.06 42.98 102.76 43 102.44 43.04C101.24 45 99.5999 48.26 97.5199 52.82C96.7599 54.34 96.1799 55.52 95.7799 56.36C95.3799 57.2 95.1399 57.7 95.0599 57.86C94.6999 58.34 94.3799 58.58 94.0999 58.58ZM109.758 39.86C109.238 39.86 108.978 39.74 108.978 39.5C108.978 39.3 109.118 39.02 109.398 38.66C109.718 38.26 110.078 37.92 110.478 37.64C111.358 37.08 112.038 36.6 112.518 36.2C113.038 35.8 113.658 35.12 114.378 34.16C114.418 34.24 114.438 34.4 114.438 34.64C114.438 35.16 114.218 35.8 113.778 36.56C113.378 37.28 112.918 37.94 112.398 38.54C111.878 39.14 111.418 39.52 111.018 39.68C110.658 39.8 110.238 39.86 109.758 39.86ZM104.418 54.56C104.098 54.56 103.798 54.44 103.518 54.2C103.238 53.96 103.098 53.64 103.098 53.24C103.098 52.4 103.678 50.86 104.838 48.62L105.498 47.3C105.578 47.22 105.678 47.02 105.798 46.7C105.958 46.38 106.178 45.96 106.458 45.44C106.738 44.88 106.958 44.38 107.118 43.94C107.278 43.5 107.398 43.08 107.478 42.68C107.478 42.64 107.558 42.56 107.718 42.44C107.878 42.32 108.038 42.22 108.198 42.14L108.558 42.08C108.878 42.08 109.138 42.14 109.338 42.26C109.578 42.38 109.658 42.54 109.578 42.74C109.298 43.34 109.058 43.86 108.858 44.3C108.658 44.74 108.498 45.12 108.378 45.44H108.318C107.878 46.44 107.498 47.4 107.178 48.32C106.898 49.2 106.778 50.04 106.818 50.84L106.878 52.46C106.838 52.86 106.698 53.2 106.458 53.48C106.298 53.6 106.078 53.74 105.798 53.9C105.518 54.1 105.158 54.3 104.718 54.5C104.678 54.54 104.578 54.56 104.418 54.56ZM110.441 53.96C109.721 53.96 109.361 53.68 109.361 53.12C109.361 52.76 109.481 52.3 109.721 51.74C110.001 51.18 110.281 50.64 110.561 50.12C111.321 48.76 112.021 47.44 112.661 46.16C113.301 44.88 113.921 43.52 114.521 42.08C114.801 41.44 115.221 41.12 115.781 41.12C116.381 41.12 116.561 41.48 116.321 42.2C116.081 42.8 115.841 43.34 115.601 43.82C114.481 46.1 113.921 47.64 113.921 48.44C113.921 48.8 114.041 49.02 114.281 49.1C114.841 48.66 115.261 48.34 115.541 48.14C115.821 47.9 115.981 47.76 116.021 47.72C116.581 47.28 117.201 46.78 117.881 46.22C118.601 45.62 119.381 44.94 120.221 44.18C121.541 42.98 122.641 42.38 123.521 42.38C124.601 42.38 125.061 43.36 124.901 45.32C124.861 46.08 124.861 46.82 124.901 47.54C124.941 47.7 124.961 47.94 124.961 48.26C124.961 48.54 124.961 48.88 124.961 49.28C124.961 49.68 125.201 49.88 125.681 49.88C126.241 49.88 126.761 49.72 127.241 49.4L128.561 48.5L129.881 47.66C129.961 47.62 130.101 47.6 130.301 47.6C130.541 47.6 130.541 47.78 130.301 48.14C127.781 51.26 125.701 52.82 124.061 52.82C123.741 52.82 123.421 52.76 123.101 52.64C122.821 52.52 122.621 52.18 122.501 51.62C122.381 51.02 122.301 50.38 122.261 49.7C122.261 49.02 122.261 48.5 122.261 48.14L122.321 46.16C122.321 45.32 122.101 44.9 121.661 44.9C120.621 44.9 118.061 47.04 113.981 51.32C113.661 51.72 113.161 52.26 112.481 52.94C111.801 53.62 111.121 53.96 110.441 53.96ZM129.994 56.54C129.154 56.54 128.794 56.12 128.914 55.28C129.154 53.76 129.574 52.24 130.174 50.72C130.494 49.92 130.894 49 131.374 47.96C131.894 46.92 132.494 45.76 133.174 44.48C133.534 43.8 133.834 43.2 134.074 42.68C134.354 42.16 134.574 41.74 134.734 41.42C135.014 40.86 135.294 40.26 135.574 39.62C135.894 38.98 136.214 38.28 136.534 37.52C138.054 34.2 139.354 31.6 140.434 29.72C141.554 27.8 142.754 26.44 144.034 25.64C144.114 25.56 144.334 25.56 144.694 25.64C145.054 25.68 145.394 25.76 145.714 25.88C146.074 26 146.294 26.14 146.374 26.3C146.494 26.58 146.554 26.98 146.554 27.5C146.554 29.1 145.814 31.02 144.334 33.26C143.534 34.46 142.514 35.78 141.274 37.22C140.074 38.62 138.654 40.14 137.014 41.78L135.934 43.52C134.734 45.44 133.794 47.08 133.114 48.44C132.474 49.8 132.234 51 132.394 52.04C132.474 52.28 132.574 52.4 132.694 52.4C132.814 52.4 133.014 52.3 133.294 52.1C133.574 51.9 133.854 51.66 134.134 51.38C134.454 51.1 134.754 50.76 135.034 50.36C135.234 50.16 135.394 49.94 135.514 49.7C135.674 49.46 135.834 49.24 135.994 49.04C136.234 48.6 136.474 48.24 136.714 47.96C137.474 46.68 138.114 45.78 138.634 45.26C139.514 44.38 140.294 43.94 140.974 43.94C141.774 43.94 142.474 44.38 143.074 45.26C143.714 46.1 144.394 47.32 145.114 48.92C145.634 50.12 146.114 51.04 146.554 51.68C146.994 52.28 147.414 52.58 147.814 52.58C148.214 52.58 148.674 52.34 149.194 51.86C149.674 51.42 150.094 51.18 150.454 51.14C150.694 51.42 150.674 51.78 150.394 52.22C150.114 52.62 149.694 53 149.134 53.36C148.614 53.76 148.094 54.08 147.574 54.32C147.054 54.56 146.654 54.64 146.374 54.56C145.254 54.24 144.374 53.68 143.734 52.88C143.134 52.04 142.534 50.96 141.934 49.64C141.734 49.2 141.554 48.82 141.394 48.5C141.234 48.14 141.074 47.86 140.914 47.66C140.634 47.26 140.254 47.06 139.774 47.06C139.414 47.06 138.994 47.24 138.514 47.6C138.034 48 137.554 48.48 137.074 49.04C136.594 49.56 136.134 50.2 135.694 50.96C135.414 51.36 135.194 51.68 135.034 51.92C134.914 52.12 134.814 52.26 134.734 52.34C134.534 52.62 134.214 53.02 133.774 53.54C133.374 54.1 132.894 54.78 132.334 55.58C132.134 55.82 131.814 56.04 131.374 56.24C130.974 56.44 130.574 56.54 130.174 56.54H129.994ZM137.314 39.32C137.434 39.4 137.734 39.22 138.214 38.78C138.694 38.3 139.234 37.7 139.834 36.98C140.474 36.22 141.094 35.44 141.694 34.64C142.334 33.8 142.834 33.06 143.194 32.42C144.434 30.3 145.054 28.9 145.054 28.22C145.054 27.94 144.954 27.74 144.754 27.62C144.354 27.3 143.814 27.48 143.134 28.16C142.454 28.8 141.774 29.66 141.094 30.74C140.414 31.78 139.834 32.82 139.354 33.86C139.074 34.5 138.774 35.22 138.454 36.02C138.174 36.82 137.934 37.54 137.734 38.18C137.534 38.78 137.394 39.16 137.314 39.32ZM153.722 54.02C152.162 54.02 151.382 53.32 151.382 51.92C151.382 51.84 151.382 51.7 151.382 51.5C151.422 51.3 151.462 51.06 151.502 50.78C151.902 49.14 152.702 47.56 153.902 46.04C155.142 44.48 156.562 43.12 158.162 41.96C158.762 41.48 159.722 41.24 161.042 41.24C161.802 41.24 162.462 41.36 163.022 41.6C163.622 41.8 164.042 42.12 164.282 42.56C164.522 42.96 164.642 43.42 164.642 43.94C164.642 44.02 164.622 44.14 164.582 44.3C164.582 44.46 164.562 44.64 164.522 44.84C164.602 44.8 164.722 44.78 164.882 44.78C165.082 44.78 165.322 44.76 165.602 44.72C165.882 44.68 166.142 44.64 166.382 44.6C166.662 44.56 166.942 44.54 167.222 44.54H167.462C167.902 44.54 167.942 44.72 167.582 45.08C167.262 45.4 166.822 45.6 166.262 45.68L164.222 45.92C163.822 47.04 163.122 48.16 162.122 49.28C161.162 50.4 160.082 51.38 158.882 52.22C157.722 53.02 156.622 53.54 155.582 53.78C154.982 53.94 154.362 54.02 153.722 54.02ZM161.402 45.08C161.642 45.08 161.922 45.08 162.242 45.08C162.602 45.04 163.002 45 163.442 44.96C163.482 44.88 163.502 44.7 163.502 44.42C163.502 43.7 163.202 43.2 162.602 42.92C162.282 42.72 161.882 42.62 161.402 42.62C160.802 42.62 160.182 42.82 159.542 43.22C158.942 43.58 158.302 44.06 157.622 44.66C158.462 44.94 159.722 45.08 161.402 45.08ZM155.522 51.92C155.922 51.92 156.482 51.74 157.202 51.38C157.962 50.98 158.742 50.46 159.542 49.82C160.342 49.18 161.062 48.5 161.702 47.78C161.902 47.58 162.102 47.34 162.302 47.06C162.502 46.74 162.722 46.42 162.962 46.1L161.522 46.28C159.282 46.6 157.282 46.78 155.522 46.82C154.642 48.26 154.102 49.46 153.902 50.42C153.862 50.94 154.002 51.32 154.322 51.56C154.642 51.8 155.042 51.92 155.522 51.92ZM186.49 57.5C185.89 57.5 185.45 57.2 185.17 56.6C185.13 56.56 185.11 56.44 185.11 56.24C185.11 56.04 185.21 55.58 185.41 54.86C185.49 54.66 185.55 54.46 185.59 54.26C185.67 54.06 185.75 53.86 185.83 53.66C185.91 53.46 185.99 53.24 186.07 53C186.15 52.72 186.23 52.44 186.31 52.16C186.47 51.56 186.55 51.06 186.55 50.66C186.55 50.1 186.37 49.82 186.01 49.82C185.89 49.82 185.67 49.92 185.35 50.12C184.83 50.52 184.27 50.9 183.67 51.26C183.11 51.62 182.51 51.96 181.87 52.28L179.95 53.3L178.69 54.02C178.57 54.06 178.29 54.24 177.85 54.56C177.45 54.8 177.03 54.92 176.59 54.92C176.07 54.92 175.49 54.64 174.85 54.08C174.37 53.6 174.13 53.1 174.13 52.58C174.13 52.14 174.35 51.52 174.79 50.72C175.11 50.2 175.65 49.56 176.41 48.8C176.73 48.48 176.99 48.2 177.19 47.96C177.43 47.68 177.63 47.46 177.79 47.3C179.47 45.06 182.07 43.08 185.59 41.36C186.59 40.84 187.49 40.58 188.29 40.58C189.17 40.58 189.87 40.94 190.39 41.66C190.63 41.18 191.01 40.5 191.53 39.62C192.09 38.7 192.69 37.7 193.33 36.62C194.01 35.54 194.65 34.52 195.25 33.56C195.89 32.6 196.39 31.86 196.75 31.34C197.83 29.86 198.71 28.74 199.39 27.98C200.07 27.26 200.69 26.9 201.25 26.9C201.45 26.9 201.71 27 202.03 27.2C202.31 27.44 202.45 27.76 202.45 28.16C202.45 28.76 202.19 29.46 201.67 30.26C201.15 31.06 200.43 32.04 199.51 33.2C199.43 33.32 199.31 33.48 199.15 33.68C198.99 33.84 198.81 34.06 198.61 34.34C198.17 34.98 197.71 35.66 197.23 36.38C196.75 37.06 196.23 37.74 195.67 38.42C194.87 39.46 194.03 40.6 193.15 41.84C192.27 43.04 191.45 44.3 190.69 45.62C190.01 46.82 189.43 48.06 188.95 49.34C188.47 50.58 188.07 51.84 187.75 53.12C187.71 53.4 187.67 53.62 187.63 53.78C187.63 53.98 187.63 54.12 187.63 54.2L187.69 55.1C187.73 55.22 187.75 55.5 187.75 55.94C187.75 56.98 187.33 57.5 186.49 57.5ZM178.27 52.34C178.71 52.34 179.11 52.26 179.47 52.1C180.99 51.58 182.43 50.92 183.79 50.12C185.15 49.32 186.59 48.24 188.11 46.88C188.31 46.32 188.55 45.72 188.83 45.08C189.11 44.44 189.41 43.74 189.73 42.98C189.25 41.98 188.55 41.48 187.63 41.48C187.03 41.48 186.39 41.68 185.71 42.08C185.03 42.48 184.27 43.02 183.43 43.7C182.63 44.34 181.81 45.06 180.97 45.86C180.17 46.66 179.47 47.44 178.87 48.2C178.27 48.92 177.85 49.52 177.61 50C177.37 50.4 177.25 50.86 177.25 51.38C177.25 52.02 177.59 52.34 178.27 52.34ZM202.765 54.62C202.685 54.62 202.605 54.6 202.525 54.56C202.445 54.56 202.365 54.54 202.285 54.5C201.725 54.22 201.365 53.82 201.205 53.3C201.045 52.78 201.005 52.12 201.085 51.32C201.165 51 201.245 50.44 201.325 49.64C201.445 48.84 201.585 48.2 201.745 47.72L198.685 50.66L197.005 52.28C195.845 53.44 194.885 54.02 194.125 54.02C193.805 54.02 193.545 53.9 193.345 53.66C192.985 53.22 192.805 52.68 192.805 52.04C192.805 51.2 193.025 50.3 193.465 49.34C193.905 48.38 194.425 47.46 195.025 46.58C195.625 45.66 196.165 44.9 196.645 44.3C197.845 42.82 199.005 41.66 200.125 40.82C201.285 39.98 202.485 39.56 203.725 39.56C204.405 39.56 205.065 39.68 205.705 39.92C206.385 40.16 207.005 40.56 207.565 41.12L207.625 41.18C207.625 41.3 207.525 41.42 207.325 41.54C207.245 41.62 207.165 41.68 207.085 41.72C207.045 41.76 207.005 41.8 206.965 41.84C206.485 42.32 205.945 43.12 205.345 44.24C204.745 45.36 204.225 46.54 203.785 47.78C203.345 48.98 203.125 50.02 203.125 50.9C203.125 51.7 203.325 52.24 203.725 52.52C203.925 52.64 204.145 52.7 204.385 52.7C204.905 52.7 205.625 52.38 206.545 51.74C206.585 51.7 206.665 51.64 206.785 51.56C206.945 51.44 207.165 51.28 207.445 51.08C207.765 50.84 208.025 50.72 208.225 50.72C208.425 50.72 208.525 50.8 208.525 50.96C208.525 51.2 208.365 51.48 208.045 51.8C207.805 52 207.525 52.22 207.205 52.46C206.925 52.7 206.585 52.94 206.185 53.18C205.585 53.62 204.965 53.96 204.325 54.2C203.685 54.48 203.165 54.62 202.765 54.62ZM195.985 50.78C196.825 50.78 198.385 49.54 200.665 47.06C201.265 46.38 201.805 45.74 202.285 45.14C202.765 44.5 203.205 43.88 203.605 43.28C204.325 42.12 204.565 41.32 204.325 40.88C204.205 40.64 203.965 40.52 203.605 40.52C203.165 40.52 202.565 40.76 201.805 41.24C201.045 41.68 200.265 42.26 199.465 42.98C198.705 43.7 198.005 44.42 197.365 45.14C196.925 45.7 196.485 46.48 196.045 47.48C195.605 48.48 195.385 49.3 195.385 49.94C195.385 50.5 195.585 50.78 195.985 50.78ZM228.733 36.08C228.333 36.08 227.893 35.98 227.413 35.78C226.293 35.46 225.153 34.78 223.993 33.74C222.753 32.66 221.693 31.38 220.813 29.9C219.933 28.38 219.413 26.9 219.253 25.46C219.213 25.3 219.193 25.1 219.193 24.86C219.193 24.62 219.193 24.34 219.193 24.02C219.193 18.82 222.393 16.22 228.793 16.22C232.033 16.22 235.593 16.74 239.473 17.78C243.393 18.82 247.893 20.2 252.973 21.92C253.893 22.24 254.733 22.54 255.493 22.82C256.293 23.06 257.013 23.28 257.653 23.48C259.213 23.92 260.573 24.14 261.733 24.14C263.053 24.14 263.993 23.88 264.553 23.36C265.153 22.84 265.453 22.26 265.453 21.62V21.38C265.453 20.9 265.593 20.66 265.873 20.66C266.193 20.66 266.533 20.9 266.893 21.38C266.973 21.46 267.013 21.62 267.013 21.86C267.013 22.78 266.473 23.64 265.393 24.44C264.313 25.24 262.973 25.64 261.373 25.64C261.133 25.64 260.913 25.64 260.713 25.64C260.553 25.64 260.393 25.62 260.233 25.58C258.673 25.38 256.953 25.02 255.073 24.5C253.233 23.94 250.953 23.2 248.233 22.28C244.433 21 241.273 20.02 238.753 19.34C236.233 18.66 233.893 18.32 231.733 18.32C229.373 18.32 227.373 18.84 225.733 19.88C224.133 20.92 222.953 22.62 222.193 24.98C222.073 25.34 222.013 25.74 222.013 26.18C222.013 26.94 222.193 27.8 222.553 28.76C222.913 29.68 223.393 30.58 223.993 31.46C224.593 32.34 225.233 33.1 225.913 33.74C226.593 34.34 227.233 34.7 227.833 34.82C228.793 35.02 229.273 35.34 229.273 35.78C229.273 35.98 229.093 36.08 228.733 36.08ZM229.873 57.14C228.953 57.14 228.533 56.54 228.613 55.34C228.933 52.82 229.733 50.12 231.013 47.24C231.653 45.76 232.573 43.86 233.773 41.54C235.013 39.18 236.533 36.42 238.333 33.26C239.573 31.02 240.573 29.28 241.333 28.04C242.133 26.8 242.973 25.88 243.853 25.28C244.613 24.76 245.333 24.5 246.013 24.5C246.653 24.5 246.813 24.76 246.493 25.28C245.853 26.16 245.073 27.28 244.153 28.64C243.273 29.96 242.253 31.52 241.093 33.32C239.573 35.72 238.093 38.16 236.653 40.64C235.213 43.12 233.993 45.4 232.993 47.48C231.993 49.52 231.333 51.16 231.013 52.4C230.893 52.88 230.833 53.28 230.833 53.6C230.833 54.28 231.113 54.62 231.673 54.62C232.553 54.62 234.153 53.72 236.473 51.92C236.553 51.84 236.653 51.8 236.773 51.8C236.933 51.8 237.013 51.9 237.013 52.1C237.013 52.34 236.933 52.54 236.773 52.7C236.613 52.86 236.413 53.02 236.173 53.18C235.933 53.38 235.653 53.6 235.333 53.84C235.013 54.04 234.733 54.22 234.493 54.38C234.253 54.54 234.093 54.66 234.013 54.74C233.493 55.1 233.053 55.4 232.693 55.64C232.333 55.92 232.053 56.14 231.853 56.3C231.053 56.86 230.393 57.14 229.873 57.14ZM249.328 39.86C248.808 39.86 248.548 39.74 248.548 39.5C248.548 39.3 248.688 39.02 248.968 38.66C249.288 38.26 249.648 37.92 250.048 37.64C250.928 37.08 251.608 36.6 252.088 36.2C252.608 35.8 253.228 35.12 253.948 34.16C253.988 34.24 254.008 34.4 254.008 34.64C254.008 35.16 253.788 35.8 253.348 36.56C252.948 37.28 252.488 37.94 251.968 38.54C251.448 39.14 250.988 39.52 250.588 39.68C250.228 39.8 249.808 39.86 249.328 39.86ZM243.988 54.56C243.668 54.56 243.368 54.44 243.088 54.2C242.808 53.96 242.668 53.64 242.668 53.24C242.668 52.4 243.248 50.86 244.408 48.62L245.068 47.3C245.148 47.22 245.248 47.02 245.368 46.7C245.528 46.38 245.748 45.96 246.028 45.44C246.308 44.88 246.528 44.38 246.688 43.94C246.848 43.5 246.968 43.08 247.048 42.68C247.048 42.64 247.128 42.56 247.288 42.44C247.448 42.32 247.608 42.22 247.768 42.14L248.128 42.08C248.448 42.08 248.708 42.14 248.908 42.26C249.148 42.38 249.228 42.54 249.148 42.74C248.868 43.34 248.628 43.86 248.428 44.3C248.228 44.74 248.068 45.12 247.948 45.44H247.888C247.448 46.44 247.068 47.4 246.748 48.32C246.468 49.2 246.348 50.04 246.388 50.84L246.448 52.46C246.408 52.86 246.268 53.2 246.028 53.48C245.868 53.6 245.648 53.74 245.368 53.9C245.088 54.1 244.728 54.3 244.288 54.5C244.248 54.54 244.148 54.56 243.988 54.56ZM259.191 54.62C259.111 54.62 259.031 54.6 258.951 54.56C258.871 54.56 258.791 54.54 258.711 54.5C258.151 54.22 257.791 53.82 257.631 53.3C257.471 52.78 257.431 52.12 257.511 51.32C257.591 51 257.671 50.44 257.751 49.64C257.871 48.84 258.011 48.2 258.171 47.72L255.111 50.66L253.431 52.28C252.271 53.44 251.311 54.02 250.551 54.02C250.231 54.02 249.971 53.9 249.771 53.66C249.411 53.22 249.231 52.68 249.231 52.04C249.231 51.2 249.451 50.3 249.891 49.34C250.331 48.38 250.851 47.46 251.451 46.58C252.051 45.66 252.591 44.9 253.071 44.3C254.271 42.82 255.431 41.66 256.551 40.82C257.711 39.98 258.911 39.56 260.151 39.56C260.831 39.56 261.491 39.68 262.131 39.92C262.811 40.16 263.431 40.56 263.991 41.12L264.051 41.18C264.051 41.3 263.951 41.42 263.751 41.54C263.671 41.62 263.591 41.68 263.511 41.72C263.471 41.76 263.431 41.8 263.391 41.84C262.911 42.32 262.371 43.12 261.771 44.24C261.171 45.36 260.651 46.54 260.211 47.78C259.771 48.98 259.551 50.02 259.551 50.9C259.551 51.7 259.751 52.24 260.151 52.52C260.351 52.64 260.571 52.7 260.811 52.7C261.331 52.7 262.051 52.38 262.971 51.74C263.011 51.7 263.091 51.64 263.211 51.56C263.371 51.44 263.591 51.28 263.871 51.08C264.191 50.84 264.451 50.72 264.651 50.72C264.851 50.72 264.951 50.8 264.951 50.96C264.951 51.2 264.791 51.48 264.471 51.8C264.231 52 263.951 52.22 263.631 52.46C263.351 52.7 263.011 52.94 262.611 53.18C262.011 53.62 261.391 53.96 260.751 54.2C260.111 54.48 259.591 54.62 259.191 54.62ZM252.411 50.78C253.251 50.78 254.811 49.54 257.091 47.06C257.691 46.38 258.231 45.74 258.711 45.14C259.191 44.5 259.631 43.88 260.031 43.28C260.751 42.12 260.991 41.32 260.751 40.88C260.631 40.64 260.391 40.52 260.031 40.52C259.591 40.52 258.991 40.76 258.231 41.24C257.471 41.68 256.691 42.26 255.891 42.98C255.131 43.7 254.431 44.42 253.791 45.14C253.351 45.7 252.911 46.48 252.471 47.48C252.031 48.48 251.811 49.3 251.811 49.94C251.811 50.5 252.011 50.78 252.411 50.78ZM288.639 58.4C288.039 58.4 287.519 58.22 287.079 57.86C286.679 57.5 286.479 57.06 286.479 56.54C286.479 56.26 286.539 56 286.659 55.76C287.699 53.24 289.499 49.96 292.059 45.92L293.919 42.98C296.319 39.22 298.459 35.74 300.339 32.54C302.259 29.3 303.779 26.44 304.899 23.96C306.019 21.44 306.579 19.42 306.579 17.9C306.579 16.22 305.799 15.38 304.239 15.38C303.399 15.38 302.339 15.62 301.059 16.1C299.779 16.62 298.399 17.28 296.919 18.08C295.479 18.88 293.939 19.86 292.299 21.02C290.139 22.54 288.119 24.22 286.239 26.06C284.359 27.86 282.779 29.72 281.499 31.64C280.259 33.52 279.439 35.34 279.039 37.1C278.879 37.78 278.799 38.52 278.799 39.32C278.799 42.4 280.599 43.94 284.199 43.94C284.479 43.94 285.019 43.84 285.819 43.64C286.659 43.4 287.499 43.14 288.339 42.86C289.179 42.58 289.719 42.38 289.959 42.26C290.199 42.14 290.379 42.08 290.499 42.08C290.739 42.08 290.859 42.2 290.859 42.44C290.859 42.8 290.559 43.12 289.959 43.4C289.639 43.56 289.079 43.76 288.279 44C287.479 44.24 286.679 44.46 285.879 44.66C285.119 44.86 284.559 44.96 284.199 44.96C281.799 44.92 279.979 44.5 278.739 43.7C277.539 42.9 276.939 41.56 276.939 39.68C276.939 39.36 276.959 38.98 276.999 38.54C277.079 38.1 277.159 37.62 277.239 37.1C277.959 33.7 279.819 30.32 282.819 26.96C284.819 24.72 287.039 22.7 289.479 20.9C291.919 19.1 294.399 17.6 296.919 16.4C299.479 15.16 301.879 14.32 304.119 13.88C304.839 13.76 305.459 13.7 305.979 13.7C308.259 13.7 309.399 14.8 309.399 17C309.399 17.76 309.279 18.6 309.039 19.52C308.639 21.2 308.039 22.86 307.239 24.5C306.479 26.1 305.519 27.8 304.359 29.6C303.239 31.4 301.919 33.46 300.399 35.78L296.979 41C296.939 41.08 296.939 41.16 296.979 41.24C297.059 41.32 297.139 41.32 297.219 41.24C297.859 40.56 298.779 39.66 299.979 38.54C301.179 37.38 302.699 36 304.539 34.4C306.299 32.84 308.079 31.34 309.879 29.9C311.679 28.46 313.379 27.18 314.979 26.06C316.619 24.9 318.079 24 319.359 23.36C320.639 22.68 321.639 22.34 322.359 22.34C323.919 22.34 324.699 23.14 324.699 24.74C324.699 25.9 324.239 27.36 323.319 29.12C322.439 30.72 321.559 32.34 320.679 33.98C319.839 35.58 319.019 37.18 318.219 38.78H318.159C315.279 44.46 313.659 48.22 313.299 50.06C313.219 50.5 313.159 50.9 313.119 51.26C313.079 51.58 313.059 51.86 313.059 52.1C313.059 52.82 313.159 53.4 313.359 53.84C313.599 54.28 313.979 54.5 314.499 54.5C315.019 54.5 315.759 54.28 316.719 53.84C317.679 53.44 318.599 52.9 319.479 52.22C320.279 51.62 320.819 51.32 321.099 51.32C321.259 51.32 321.339 51.38 321.339 51.5C321.339 51.62 321.279 51.78 321.159 51.98C320.879 52.46 320.399 52.94 319.719 53.42C318.439 54.34 317.339 55.04 316.419 55.52C315.539 56.04 314.799 56.3 314.199 56.3C313.079 56.3 312.159 55.94 311.439 55.22C310.759 54.5 310.419 53.48 310.419 52.16C310.419 52 310.439 51.76 310.479 51.44C310.519 51.12 310.579 50.72 310.659 50.24C310.939 48.92 311.499 47.24 312.339 45.2C313.219 43.16 314.299 40.84 315.579 38.24C316.899 35.64 318.319 32.88 319.839 29.96C320.479 28.72 320.799 27.82 320.799 27.26C320.799 26.62 320.479 26.3 319.839 26.3C319.279 26.3 318.519 26.52 317.559 26.96C316.639 27.36 315.639 27.88 314.559 28.52C313.519 29.16 312.499 29.82 311.499 30.5C310.499 31.18 309.659 31.78 308.979 32.3C307.299 33.62 305.499 35.22 303.579 37.1C301.699 38.98 299.859 40.96 298.059 43.04C296.299 45.12 294.739 47.2 293.379 49.28C293.339 49.36 293.299 49.52 293.259 49.76C293.219 49.96 293.179 50.22 293.139 50.54C293.099 51.38 292.999 52.12 292.839 52.76C292.719 53.4 292.459 54.08 292.059 54.8C291.779 55.32 291.539 55.76 291.339 56.12C291.139 56.52 290.959 56.82 290.799 57.02C290.239 57.94 289.519 58.4 288.639 58.4ZM323.385 53.66C322.545 53.66 321.805 53.44 321.165 53C320.125 52.2 319.605 51 319.605 49.4C319.605 47.8 320.165 46.1 321.285 44.3C322.405 42.5 324.105 40.84 326.385 39.32C326.785 39.04 327.325 38.9 328.005 38.9C328.885 38.9 329.665 39.14 330.345 39.62C331.065 40.1 331.345 40.72 331.185 41.48C330.905 42.72 330.285 43.82 329.325 44.78C328.405 45.74 327.305 46.6 326.025 47.36C324.785 48.08 323.505 48.78 322.185 49.46C322.145 49.58 322.105 49.7 322.065 49.82C322.065 49.94 322.065 50.06 322.065 50.18C322.065 50.74 322.245 51.24 322.605 51.68C323.005 52.08 323.545 52.28 324.225 52.28C324.745 52.28 325.185 52.2 325.545 52.04C326.185 51.8 326.705 51.58 327.105 51.38C327.545 51.18 328.045 50.88 328.605 50.48C329.165 50.08 329.925 49.48 330.885 48.68C331.325 48.36 331.585 48.2 331.665 48.2C331.905 48.2 331.985 48.38 331.905 48.74C331.505 49.38 330.805 50.08 329.805 50.84C328.845 51.6 327.765 52.26 326.565 52.82C325.405 53.38 324.345 53.66 323.385 53.66ZM322.545 47.84C322.865 47.84 323.525 47.52 324.525 46.88C325.525 46.24 326.465 45.54 327.345 44.78C328.865 43.38 329.625 42.3 329.625 41.54C329.625 41.34 329.565 41.16 329.445 41C329.325 40.8 329.145 40.7 328.905 40.7C328.145 40.7 326.865 41.6 325.065 43.4C323.825 44.6 322.985 46.08 322.545 47.84ZM332.039 56.96C331.599 56.96 331.219 56.82 330.899 56.54C330.619 56.26 330.499 55.92 330.539 55.52C330.619 53.88 330.919 52.3 331.439 50.78C331.999 49.26 332.799 47.44 333.839 45.32C333.959 45.04 334.059 44.8 334.139 44.6C334.259 44.36 334.359 44.16 334.439 44C335.319 42.12 336.219 40.32 337.139 38.6C338.059 36.88 338.979 35.2 339.899 33.56L340.739 32.06C341.699 30.34 342.539 28.96 343.259 27.92C343.979 26.84 344.699 26.06 345.419 25.58C346.339 25.02 346.899 24.74 347.099 24.74C347.419 24.74 347.739 25.02 348.059 25.58C348.259 25.98 347.859 26.96 346.859 28.52C346.339 29.32 345.679 30.32 344.879 31.52C344.119 32.72 343.199 34.08 342.119 35.6C341.919 35.88 341.579 36.38 341.099 37.1C340.659 37.78 340.059 38.68 339.299 39.8C338.539 40.92 337.879 41.94 337.319 42.86C336.759 43.74 336.299 44.52 335.939 45.2C335.219 46.52 334.539 47.94 333.899 49.46C333.259 50.94 332.939 52.1 332.939 52.94C332.939 53.7 333.239 54.08 333.839 54.08C334.799 54.08 336.339 53.26 338.459 51.62C338.699 51.66 338.819 51.78 338.819 51.98C338.819 52.14 338.619 52.42 338.219 52.82C337.859 53.18 337.399 53.56 336.839 53.96C336.319 54.4 335.699 54.9 334.979 55.46L334.019 56.18C333.379 56.7 332.719 56.96 332.039 56.96ZM343.877 54.2C342.917 54.2 342.177 53.9 341.657 53.3C341.177 52.74 340.937 52 340.937 51.08C340.937 49.44 341.537 47.84 342.737 46.28C343.697 45.04 344.757 43.92 345.917 42.92C347.117 41.88 348.277 41.06 349.397 40.46C350.557 39.82 351.537 39.5 352.337 39.5C353.097 39.5 353.597 39.82 353.837 40.46C353.997 40.78 354.077 41.16 354.077 41.6C354.077 42.4 353.777 42.8 353.177 42.8C352.897 42.8 352.637 42.68 352.397 42.44C352.197 42.16 352.097 41.78 352.097 41.3C351.657 41.1 351.057 41.2 350.297 41.6C349.577 41.96 348.817 42.5 348.017 43.22C347.217 43.9 346.457 44.64 345.737 45.44C345.017 46.2 344.457 46.86 344.057 47.42C343.337 48.42 342.977 49.52 342.977 50.72C342.977 51.28 343.117 51.74 343.397 52.1C343.677 52.46 344.097 52.64 344.657 52.64C345.177 52.64 345.797 52.48 346.517 52.16C347.037 51.88 347.517 51.62 347.957 51.38C348.437 51.14 348.877 50.92 349.277 50.72C351.757 49.32 353.157 48.62 353.477 48.62C353.597 48.62 353.657 48.68 353.657 48.8C353.657 48.92 353.557 49.08 353.357 49.28C352.957 49.64 352.317 50.14 351.437 50.78C350.557 51.42 349.617 52.02 348.617 52.58C347.617 53.14 346.697 53.56 345.857 53.84C345.097 54.08 344.437 54.2 343.877 54.2ZM361.184 39.86C360.664 39.86 360.404 39.74 360.404 39.5C360.404 39.3 360.544 39.02 360.824 38.66C361.144 38.26 361.504 37.92 361.904 37.64C362.784 37.08 363.464 36.6 363.944 36.2C364.464 35.8 365.084 35.12 365.804 34.16C365.844 34.24 365.864 34.4 365.864 34.64C365.864 35.16 365.644 35.8 365.204 36.56C364.804 37.28 364.344 37.94 363.824 38.54C363.304 39.14 362.844 39.52 362.444 39.68C362.084 39.8 361.664 39.86 361.184 39.86ZM355.844 54.56C355.524 54.56 355.224 54.44 354.944 54.2C354.664 53.96 354.524 53.64 354.524 53.24C354.524 52.4 355.104 50.86 356.264 48.62L356.924 47.3C357.004 47.22 357.104 47.02 357.224 46.7C357.384 46.38 357.604 45.96 357.884 45.44C358.164 44.88 358.384 44.38 358.544 43.94C358.704 43.5 358.824 43.08 358.904 42.68C358.904 42.64 358.984 42.56 359.144 42.44C359.304 42.32 359.464 42.22 359.624 42.14L359.984 42.08C360.304 42.08 360.564 42.14 360.764 42.26C361.004 42.38 361.084 42.54 361.004 42.74C360.724 43.34 360.484 43.86 360.284 44.3C360.084 44.74 359.924 45.12 359.804 45.44H359.744C359.304 46.44 358.924 47.4 358.604 48.32C358.324 49.2 358.204 50.04 358.244 50.84L358.304 52.46C358.264 52.86 358.124 53.2 357.884 53.48C357.724 53.6 357.504 53.74 357.224 53.9C356.944 54.1 356.584 54.3 356.144 54.5C356.104 54.54 356.004 54.56 355.844 54.56Z" fill="#E19852"/>
<path d="M132.828 82.08L133.308 82.8C132.228 84.0267 131.148 84.9333 130.068 85.52C128.988 86.1067 127.828 86.4 126.588 86.4C125.055 86.4 123.688 85.7267 122.488 84.38C121.302 83.0333 120.708 81.5067 120.708 79.8C120.708 77.6533 121.515 75.76 123.128 74.12C124.755 72.4667 126.642 71.64 128.788 71.64C129.642 71.64 130.708 71.8533 131.988 72.28L131.748 75.08H131.068C131.068 74.5867 130.902 74.2 130.568 73.92C130.235 73.64 129.855 73.4667 129.428 73.4C129.015 73.32 128.495 73.28 127.868 73.28C126.322 73.28 124.975 73.7333 123.828 74.64C122.682 75.5467 122.108 76.7867 122.108 78.36C122.108 79.5067 122.322 80.5267 122.748 81.42C123.175 82.3133 123.708 83 124.348 83.48C125.615 84.4133 126.828 84.88 127.988 84.88C128.708 84.88 129.508 84.6467 130.388 84.18C131.268 83.7133 132.082 83.0133 132.828 82.08ZM138.594 86.28C137.421 86.28 136.441 85.84 135.654 84.96C134.867 84.08 134.474 83.0533 134.474 81.88C134.474 80.3867 135.034 79.1 136.154 78.02C137.287 76.94 138.481 76.4 139.734 76.4C140.987 76.4 141.994 76.8467 142.754 77.74C143.527 78.62 143.914 79.64 143.914 80.8C143.914 82.2533 143.374 83.5333 142.294 84.64C141.227 85.7333 139.994 86.28 138.594 86.28ZM135.874 80.8C135.874 82.04 136.247 83.0733 136.994 83.9C137.754 84.7133 138.601 85.12 139.534 85.12C140.481 85.12 141.221 84.7667 141.754 84.06C142.287 83.3533 142.554 82.6267 142.554 81.88C142.554 80.7467 142.201 79.76 141.494 78.92C140.801 78.0667 139.954 77.64 138.954 77.64C137.954 77.64 137.187 77.98 136.654 78.66C136.134 79.3267 135.874 80.04 135.874 80.8ZM145.36 85.44L145.56 83.28L146.12 83.32C146.12 83.7733 146.414 84.2067 147 84.62C147.587 85.0333 148.22 85.24 148.9 85.24C150.3 85.24 151 84.8133 151 83.96C151 83.5333 150.82 83.1533 150.46 82.82C150.1 82.4867 149.667 82.2133 149.16 82C148.654 81.7733 148.147 81.5467 147.64 81.32C147.134 81.08 146.7 80.7733 146.34 80.4C145.98 80.0133 145.8 79.5733 145.8 79.08C145.8 77.3467 147.08 76.48 149.64 76.48C150.214 76.48 150.84 76.64 151.52 76.96L151.4 78.96H150.92C150.92 78.5867 150.7 78.2267 150.26 77.88C149.834 77.5333 149.367 77.36 148.86 77.36C148.354 77.36 147.92 77.46 147.56 77.66C147.214 77.86 147.04 78.16 147.04 78.56C147.04 78.9467 147.22 79.2667 147.58 79.52C147.94 79.7733 148.374 79.98 148.88 80.14C149.387 80.3 149.894 80.48 150.4 80.68C150.907 80.88 151.34 81.2067 151.7 81.66C152.06 82.1133 152.24 82.68 152.24 83.36C152.24 84.04 152.02 84.6067 151.58 85.06C150.794 85.8733 149.654 86.28 148.16 86.28C147 86.28 146.067 86 145.36 85.44ZM159.594 84.76L159.754 85.24C158.754 85.9333 157.661 86.28 156.474 86.28C156.048 86.28 155.681 86.1267 155.374 85.82C155.068 85.5133 154.914 85.1067 154.914 84.6V77.52H153.754V76.68H154.194C154.634 76.68 155.041 76.4133 155.414 75.88C155.801 75.3467 155.994 74.8533 155.994 74.4H156.514V76.68H159.234V77.52H157.274C156.768 77.52 156.514 77.76 156.514 78.24V83.96C156.514 84.84 156.834 85.28 157.474 85.28C158.194 85.28 158.901 85.1067 159.594 84.76ZM170.552 86H167.672V83.64C167.365 84.48 166.892 85.1333 166.252 85.6C165.612 86.0533 164.832 86.28 163.912 86.28C163.432 86.28 163.025 86.1733 162.692 85.96C162.359 85.7467 162.119 85.4733 161.972 85.14C161.719 84.5667 161.592 84 161.592 83.44V78.68C161.592 78.0667 161.205 77.76 160.432 77.76V77.2C160.699 77.2 161.099 77.1267 161.632 76.98C162.179 76.8333 162.579 76.68 162.832 76.52L163.192 76.48V83.08C163.192 83.68 163.332 84.14 163.612 84.46C163.905 84.7667 164.312 84.92 164.832 84.92C165.579 84.92 166.239 84.52 166.812 83.72C167.385 82.92 167.672 82.32 167.672 81.92V78.68C167.672 78.0667 167.285 77.76 166.512 77.76V77.2C166.805 77.2 167.219 77.1267 167.752 76.98C168.299 76.8333 168.699 76.68 168.952 76.52L169.312 76.48V84.64C169.312 84.8267 169.325 84.9667 169.352 85.06C169.419 85.3133 169.699 85.44 170.192 85.44H170.552V86ZM176.438 86H172.118V85.44H172.438C172.798 85.44 173.025 85.38 173.118 85.26C173.225 85.14 173.278 84.9467 173.278 84.68V78.68C173.278 78.4267 173.192 78.2467 173.018 78.14C172.858 78.02 172.558 77.96 172.118 77.96V77.4C172.385 77.4 172.785 77.3067 173.318 77.12C173.865 76.92 174.278 76.7333 174.558 76.56L174.918 76.48V78.96C175.398 77.9067 175.945 77.2133 176.558 76.88C177.172 76.5333 178.078 76.36 179.278 76.36L179.158 78.68H178.558C178.558 78.4933 178.485 78.3133 178.338 78.14C178.205 77.9667 177.985 77.88 177.678 77.88C177.012 77.88 176.385 78.24 175.798 78.96C175.212 79.68 174.918 80.3733 174.918 81.04V84.56C174.918 84.7733 174.925 84.9267 174.938 85.02C174.965 85.1133 175.045 85.2067 175.178 85.3C175.312 85.3933 175.518 85.44 175.798 85.44H176.438V86ZM188.747 86H185.867V84.4C185.2 85.12 184.647 85.6133 184.207 85.88C183.767 86.1467 183.167 86.28 182.407 86.28C181.66 86.28 181.073 86.1067 180.647 85.76C180.233 85.4 180.027 84.9 180.027 84.26C180.027 83.62 180.3 83 180.847 82.4C181.407 81.7867 182.053 81.3267 182.787 81.02C183.533 80.7 184.187 80.46 184.747 80.3C185.307 80.1267 185.68 80.04 185.867 80.04V79.6C185.867 78.3467 185.347 77.72 184.307 77.72C183.587 77.72 182.913 77.8733 182.287 78.18C181.673 78.4867 181.213 78.88 180.907 79.36L180.507 79C181.4 77.2667 182.947 76.4 185.147 76.4C185.707 76.4 186.167 76.5533 186.527 76.86C186.9 77.1533 187.147 77.5 187.267 77.9C187.4 78.3 187.467 78.7467 187.467 79.24V84.64C187.467 84.8133 187.48 84.9467 187.507 85.04C187.533 85.1333 187.613 85.2267 187.747 85.32C187.893 85.4 188.107 85.44 188.387 85.44H188.747V86ZM185.867 83.28V80.84C184.827 81.04 183.86 81.44 182.967 82.04C182.073 82.64 181.627 83.2933 181.627 84C181.627 84.28 181.76 84.5267 182.027 84.74C182.307 84.94 182.647 85.04 183.047 85.04C183.46 85.04 183.947 84.86 184.507 84.5C185.067 84.1267 185.52 83.72 185.867 83.28ZM207.262 82.08L207.742 82.8C206.662 84.0267 205.582 84.9333 204.502 85.52C203.422 86.1067 202.262 86.4 201.022 86.4C199.489 86.4 198.122 85.7267 196.922 84.38C195.735 83.0333 195.142 81.5067 195.142 79.8C195.142 77.6533 195.949 75.76 197.562 74.12C199.189 72.4667 201.075 71.64 203.222 71.64C204.075 71.64 205.142 71.8533 206.422 72.28L206.182 75.08H205.502C205.502 74.5867 205.335 74.2 205.002 73.92C204.669 73.64 204.289 73.4667 203.862 73.4C203.449 73.32 202.929 73.28 202.302 73.28C200.755 73.28 199.409 73.7333 198.262 74.64C197.115 75.5467 196.542 76.7867 196.542 78.36C196.542 79.5067 196.755 80.5267 197.182 81.42C197.609 82.3133 198.142 83 198.782 83.48C200.049 84.4133 201.262 84.88 202.422 84.88C203.142 84.88 203.942 84.6467 204.822 84.18C205.702 83.7133 206.515 83.0133 207.262 82.08ZM213.548 86H209.228V85.44H209.548C209.908 85.44 210.134 85.38 210.228 85.26C210.334 85.14 210.388 84.9467 210.388 84.68V78.68C210.388 78.4267 210.301 78.2467 210.128 78.14C209.968 78.02 209.668 77.96 209.228 77.96V77.4C209.494 77.4 209.894 77.3067 210.428 77.12C210.974 76.92 211.388 76.7333 211.668 76.56L212.028 76.48V78.96C212.508 77.9067 213.054 77.2133 213.668 76.88C214.281 76.5333 215.188 76.36 216.388 76.36L216.268 78.68H215.668C215.668 78.4933 215.594 78.3133 215.448 78.14C215.314 77.9667 215.094 77.88 214.788 77.88C214.121 77.88 213.494 78.24 212.908 78.96C212.321 79.68 212.028 80.3733 212.028 81.04V84.56C212.028 84.7733 212.034 84.9267 212.048 85.02C212.074 85.1133 212.154 85.2067 212.288 85.3C212.421 85.3933 212.628 85.44 212.908 85.44H213.548V86ZM219.115 72.08C219.421 72.08 219.655 72.18 219.815 72.38C219.988 72.58 220.075 72.84 220.075 73.16C220.075 73.4667 219.948 73.7267 219.695 73.94C219.441 74.14 219.161 74.24 218.855 74.24C218.561 74.24 218.328 74.14 218.155 73.94C217.995 73.74 217.915 73.4933 217.915 73.2C217.915 72.8933 218.041 72.6333 218.295 72.42C218.548 72.1933 218.821 72.08 219.115 72.08ZM221.315 86H217.275V85.44H217.595C217.955 85.44 218.181 85.38 218.275 85.26C218.381 85.14 218.435 84.9467 218.435 84.68V78.68C218.435 78.4267 218.348 78.2467 218.175 78.14C218.015 78.02 217.715 77.96 217.275 77.96V77.4C217.541 77.4 217.941 77.3067 218.475 77.12C219.021 76.92 219.435 76.7333 219.715 76.56L220.075 76.48V84.56C220.075 84.7733 220.081 84.9267 220.095 85.02C220.121 85.1133 220.201 85.2067 220.335 85.3C220.468 85.3933 220.675 85.44 220.955 85.44H221.315V86ZM231.559 86H228.679V84.4C228.012 85.12 227.459 85.6133 227.019 85.88C226.579 86.1467 225.979 86.28 225.219 86.28C224.472 86.28 223.886 86.1067 223.459 85.76C223.046 85.4 222.839 84.9 222.839 84.26C222.839 83.62 223.112 83 223.659 82.4C224.219 81.7867 224.866 81.3267 225.599 81.02C226.346 80.7 226.999 80.46 227.559 80.3C228.119 80.1267 228.492 80.04 228.679 80.04V79.6C228.679 78.3467 228.159 77.72 227.119 77.72C226.399 77.72 225.726 77.8733 225.099 78.18C224.486 78.4867 224.026 78.88 223.719 79.36L223.319 79C224.212 77.2667 225.759 76.4 227.959 76.4C228.519 76.4 228.979 76.5533 229.339 76.86C229.712 77.1533 229.959 77.5 230.079 77.9C230.212 78.3 230.279 78.7467 230.279 79.24V84.64C230.279 84.8133 230.292 84.9467 230.319 85.04C230.346 85.1333 230.426 85.2267 230.559 85.32C230.706 85.4 230.919 85.44 231.199 85.44H231.559V86ZM228.679 83.28V80.84C227.639 81.04 226.672 81.44 225.779 82.04C224.886 82.64 224.439 83.2933 224.439 84C224.439 84.28 224.572 84.5267 224.839 84.74C225.119 84.94 225.459 85.04 225.859 85.04C226.272 85.04 226.759 84.86 227.319 84.5C227.879 84.1267 228.332 83.72 228.679 83.28ZM238.657 84.76L238.817 85.24C237.817 85.9333 236.723 86.28 235.537 86.28C235.11 86.28 234.743 86.1267 234.437 85.82C234.13 85.5133 233.977 85.1067 233.977 84.6V77.52H232.817V76.68H233.257C233.697 76.68 234.103 76.4133 234.477 75.88C234.863 75.3467 235.057 74.8533 235.057 74.4H235.577V76.68H238.297V77.52H236.337C235.83 77.52 235.577 77.76 235.577 78.24V83.96C235.577 84.84 235.897 85.28 236.537 85.28C237.257 85.28 237.963 85.1067 238.657 84.76ZM241.615 72.08C241.921 72.08 242.155 72.18 242.315 72.38C242.488 72.58 242.575 72.84 242.575 73.16C242.575 73.4667 242.448 73.7267 242.195 73.94C241.941 74.14 241.661 74.24 241.355 74.24C241.061 74.24 240.828 74.14 240.655 73.94C240.495 73.74 240.415 73.4933 240.415 73.2C240.415 72.8933 240.541 72.6333 240.795 72.42C241.048 72.1933 241.321 72.08 241.615 72.08ZM243.815 86H239.775V85.44H240.095C240.455 85.44 240.681 85.38 240.775 85.26C240.881 85.14 240.935 84.9467 240.935 84.68V78.68C240.935 78.4267 240.848 78.2467 240.675 78.14C240.515 78.02 240.215 77.96 239.775 77.96V77.4C240.041 77.4 240.441 77.3067 240.975 77.12C241.521 76.92 241.935 76.7333 242.215 76.56L242.575 76.48V84.56C242.575 84.7733 242.581 84.9267 242.595 85.02C242.621 85.1133 242.701 85.2067 242.835 85.3C242.968 85.3933 243.175 85.44 243.455 85.44H243.815V86ZM248.841 86.28L245.801 78.16C245.681 77.8533 245.548 77.6333 245.401 77.5C245.268 77.3533 245.055 77.28 244.761 77.28H244.481V76.68H248.201L248.161 77.28H247.961C247.561 77.28 247.361 77.4 247.361 77.64C247.361 77.8 247.375 77.9067 247.401 77.96L249.641 83.84L251.921 78.08C252.028 77.8667 252.081 77.7 252.081 77.58C252.081 77.46 252.008 77.38 251.861 77.34C251.728 77.3 251.415 77.28 250.921 77.28H250.681V76.68H254.441V77.28H254.281C253.855 77.28 253.548 77.3467 253.361 77.48C253.188 77.6133 253.028 77.8667 252.881 78.24L250.241 85C250.135 85 249.928 85.18 249.621 85.54C249.315 85.8867 249.161 86.1067 249.161 86.2L248.841 86.28ZM263.336 86H260.456V84.4C259.79 85.12 259.236 85.6133 258.796 85.88C258.356 86.1467 257.756 86.28 256.996 86.28C256.25 86.28 255.663 86.1067 255.236 85.76C254.823 85.4 254.616 84.9 254.616 84.26C254.616 83.62 254.89 83 255.436 82.4C255.996 81.7867 256.643 81.3267 257.376 81.02C258.123 80.7 258.776 80.46 259.336 80.3C259.896 80.1267 260.27 80.04 260.456 80.04V79.6C260.456 78.3467 259.936 77.72 258.896 77.72C258.176 77.72 257.503 77.8733 256.876 78.18C256.263 78.4867 255.803 78.88 255.496 79.36L255.096 79C255.99 77.2667 257.536 76.4 259.736 76.4C260.296 76.4 260.756 76.5533 261.116 76.86C261.49 77.1533 261.736 77.5 261.856 77.9C261.99 78.3 262.056 78.7467 262.056 79.24V84.64C262.056 84.8133 262.07 84.9467 262.096 85.04C262.123 85.1333 262.203 85.2267 262.336 85.32C262.483 85.4 262.696 85.44 262.976 85.44H263.336V86ZM260.456 83.28V80.84C259.416 81.04 258.45 81.44 257.556 82.04C256.663 82.64 256.216 83.2933 256.216 84C256.216 84.28 256.35 84.5267 256.616 84.74C256.896 84.94 257.236 85.04 257.636 85.04C258.05 85.04 258.536 84.86 259.096 84.5C259.656 84.1267 260.11 83.72 260.456 83.28Z" fill="#BD4943"/>
</svg>
