<svg width="117" height="61" viewBox="0 0 117 61" fill="none" xmlns="http://www.w3.org/2000/svg">
<path d="M36.2067 29.42C34.5467 29.42 33.0067 29.16 31.5867 28.64C30.1867 28.1 28.9667 27.34 27.9267 26.36C26.9067 25.38 26.1067 24.23 25.5267 22.91C24.9467 21.57 24.6567 20.1 24.6567 18.5C24.6567 16.9 24.9467 15.44 25.5267 14.12C26.1067 12.78 26.9067 11.62 27.9267 10.64C28.9667 9.66 30.1867 8.91 31.5867 8.39C33.0067 7.85 34.5467 7.58 36.2067 7.58C38.1467 7.58 39.8767 7.92 41.3967 8.6C42.9367 9.28 44.2167 10.26 45.2367 11.54L41.4567 14.96C40.7767 14.16 40.0267 13.55 39.2067 13.13C38.4067 12.71 37.5067 12.5 36.5067 12.5C35.6467 12.5 34.8567 12.64 34.1367 12.92C33.4167 13.2 32.7967 13.61 32.2767 14.15C31.7767 14.67 31.3767 15.3 31.0767 16.04C30.7967 16.78 30.6567 17.6 30.6567 18.5C30.6567 19.4 30.7967 20.22 31.0767 20.96C31.3767 21.7 31.7767 22.34 32.2767 22.88C32.7967 23.4 33.4167 23.8 34.1367 24.08C34.8567 24.36 35.6467 24.5 36.5067 24.5C37.5067 24.5 38.4067 24.29 39.2067 23.87C40.0267 23.45 40.7767 22.84 41.4567 22.04L45.2367 25.46C44.2167 26.72 42.9367 27.7 41.3967 28.4C39.8767 29.08 38.1467 29.42 36.2067 29.42ZM47.8852 29V8H52.7752L61.4752 22.28H58.8952L67.3552 8H72.2452L72.3052 29H66.8452L66.7852 16.31H67.7152L61.3852 26.93H58.7452L52.2352 16.31H53.3752V29H47.8852Z" fill="white"/>
<path d="M78.6082 29L86.7982 10.19L88.3882 12.71H77.7382L80.1682 9.98V15.95H75.0982V8H92.4982V11.72L85.0882 29H78.6082Z" fill="#FFFF00"/>
<path d="M8.1318 56.18C7.2118 56.18 6.42513 55.98 5.7718 55.58C5.11846 55.1667 4.61846 54.5533 4.2718 53.74C3.93846 52.9133 3.7718 51.86 3.7718 50.58C3.7718 49.2867 3.9318 48.2333 4.2518 47.42C4.5718 46.5933 5.0518 45.98 5.6918 45.58C6.34513 45.18 7.15846 44.98 8.1318 44.98C9.11846 44.98 10.0118 45.2133 10.8118 45.68C11.6251 46.1333 12.2651 46.78 12.7318 47.62C13.2118 48.4467 13.4518 49.4333 13.4518 50.58C13.4518 51.7267 13.2118 52.72 12.7318 53.56C12.2651 54.4 11.6251 55.0467 10.8118 55.5C10.0118 55.9533 9.11846 56.18 8.1318 56.18ZM1.3118 59.88V45.16H4.9318V47L4.9118 50.58L5.1118 54.18V59.88H1.3118ZM7.3318 53.16C7.75846 53.16 8.13846 53.06 8.4718 52.86C8.81846 52.66 9.0918 52.3667 9.2918 51.98C9.50513 51.5933 9.6118 51.1267 9.6118 50.58C9.6118 50.0333 9.50513 49.5667 9.2918 49.18C9.0918 48.7933 8.81846 48.5 8.4718 48.3C8.13846 48.1 7.75846 48 7.3318 48C6.90513 48 6.51846 48.1 6.1718 48.3C5.83846 48.5 5.56513 48.7933 5.3518 49.18C5.1518 49.5667 5.0518 50.0333 5.0518 50.58C5.0518 51.1267 5.1518 51.5933 5.3518 51.98C5.56513 52.3667 5.83846 52.66 6.1718 52.86C6.51846 53.06 6.90513 53.16 7.3318 53.16ZM15.218 56V41.16H19.018V56H15.218ZM28.1076 56V53.98L27.8476 53.48V49.76C27.8476 49.16 27.6609 48.7 27.2876 48.38C26.9276 48.0467 26.3476 47.88 25.5476 47.88C25.0276 47.88 24.5009 47.9667 23.9676 48.14C23.4342 48.3 22.9809 48.5267 22.6076 48.82L21.3276 46.24C21.9409 45.84 22.6742 45.5333 23.5276 45.32C24.3942 45.0933 25.2542 44.98 26.1076 44.98C27.8676 44.98 29.2276 45.3867 30.1876 46.2C31.1609 47 31.6476 48.26 31.6476 49.98V56H28.1076ZM24.9076 56.18C24.0409 56.18 23.3076 56.0333 22.7076 55.74C22.1076 55.4467 21.6476 55.0467 21.3276 54.54C21.0209 54.0333 20.8676 53.4667 20.8676 52.84C20.8676 52.1733 21.0342 51.6 21.3676 51.12C21.7142 50.6267 22.2409 50.2533 22.9476 50C23.6542 49.7333 24.5676 49.6 25.6876 49.6H28.2476V51.58H26.2076C25.5942 51.58 25.1609 51.68 24.9076 51.88C24.6676 52.08 24.5476 52.3467 24.5476 52.68C24.5476 53.0133 24.6742 53.28 24.9276 53.48C25.1809 53.68 25.5276 53.78 25.9676 53.78C26.3809 53.78 26.7542 53.68 27.0876 53.48C27.4342 53.2667 27.6876 52.9467 27.8476 52.52L28.3676 53.92C28.1676 54.6667 27.7742 55.2333 27.1876 55.62C26.6142 55.9933 25.8542 56.18 24.9076 56.18ZM41.1062 44.98C41.9462 44.98 42.7062 45.1533 43.3862 45.5C44.0662 45.8333 44.5995 46.3533 44.9862 47.06C45.3862 47.7667 45.5862 48.68 45.5862 49.8V56H41.7862V50.42C41.7862 49.6467 41.6262 49.0867 41.3062 48.74C40.9995 48.38 40.5662 48.2 40.0062 48.2C39.6062 48.2 39.2395 48.2933 38.9062 48.48C38.5728 48.6533 38.3128 48.9267 38.1262 49.3C37.9395 49.6733 37.8462 50.16 37.8462 50.76V56H34.0462V45.16H37.6662V48.24L36.9662 47.34C37.3795 46.5533 37.9462 45.9667 38.6662 45.58C39.3862 45.18 40.1995 44.98 41.1062 44.98ZM47.512 60.06C47.0053 60.06 46.5253 60.0067 46.072 59.9C45.6053 59.8067 45.2053 59.6733 44.872 59.5L45.832 56.8C46.1786 57.0133 46.572 57.12 47.012 57.12C47.3453 57.12 47.612 57.0067 47.812 56.78C48.0253 56.5533 48.132 56.1933 48.132 55.7V45.16H51.932V55.72C51.932 57.04 51.5453 58.0933 50.772 58.88C49.9986 59.6667 48.912 60.06 47.512 60.06ZM50.032 43.96C49.3386 43.96 48.7786 43.7667 48.352 43.38C47.9253 42.9933 47.712 42.5133 47.712 41.94C47.712 41.3667 47.9253 40.8867 48.352 40.5C48.7786 40.1133 49.3386 39.92 50.032 39.92C50.7253 39.92 51.2853 40.1067 51.712 40.48C52.1386 40.84 52.352 41.3067 52.352 41.88C52.352 42.48 52.1386 42.98 51.712 43.38C51.2986 43.7667 50.7386 43.96 50.032 43.96ZM60.0582 56.18C58.7782 56.18 57.6582 55.94 56.6982 55.46C55.7515 54.9667 55.0115 54.3 54.4782 53.46C53.9582 52.6067 53.6982 51.64 53.6982 50.56C53.6982 49.48 53.9515 48.52 54.4582 47.68C54.9782 46.8267 55.6915 46.1667 56.5982 45.7C57.5049 45.22 58.5249 44.98 59.6582 44.98C60.7249 44.98 61.6982 45.2 62.5782 45.64C63.4582 46.0667 64.1582 46.7 64.6782 47.54C65.1982 48.38 65.4582 49.4 65.4582 50.6C65.4582 50.7333 65.4515 50.8867 65.4382 51.06C65.4249 51.2333 65.4115 51.3933 65.3982 51.54H56.8182V49.54H63.3782L61.9382 50.1C61.9515 49.6067 61.8582 49.18 61.6582 48.82C61.4715 48.46 61.2049 48.18 60.8582 47.98C60.5249 47.78 60.1315 47.68 59.6782 47.68C59.2249 47.68 58.8249 47.78 58.4782 47.98C58.1449 48.18 57.8849 48.4667 57.6982 48.84C57.5115 49.2 57.4182 49.6267 57.4182 50.12V50.7C57.4182 51.2333 57.5249 51.6933 57.7382 52.08C57.9649 52.4667 58.2849 52.7667 58.6982 52.98C59.1115 53.18 59.6049 53.28 60.1782 53.28C60.7115 53.28 61.1649 53.2067 61.5382 53.06C61.9249 52.9 62.3049 52.66 62.6782 52.34L64.6782 54.42C64.1582 54.9933 63.5182 55.4333 62.7582 55.74C61.9982 56.0333 61.0982 56.18 60.0582 56.18ZM71.9302 56.18C70.9436 56.18 70.0436 55.9533 69.2302 55.5C68.4302 55.0333 67.7902 54.3867 67.3102 53.56C66.8302 52.72 66.5902 51.72 66.5902 50.56C66.5902 49.4133 66.8302 48.4267 67.3102 47.6C67.7902 46.76 68.4302 46.1133 69.2302 45.66C70.0436 45.2067 70.9436 44.98 71.9302 44.98C72.8636 44.98 73.6502 45.18 74.2902 45.58C74.9436 45.98 75.4369 46.5933 75.7702 47.42C76.1036 48.2467 76.2702 49.2933 76.2702 50.56C76.2702 51.8533 76.1102 52.9133 75.7902 53.74C75.4702 54.5667 74.9902 55.18 74.3502 55.58C73.7102 55.98 72.9036 56.18 71.9302 56.18ZM72.7302 53.16C73.1569 53.16 73.5369 53.06 73.8702 52.86C74.2169 52.66 74.4902 52.3667 74.6902 51.98C74.8902 51.58 74.9902 51.1067 74.9902 50.56C74.9902 50.0133 74.8902 49.5533 74.6902 49.18C74.4902 48.7933 74.2169 48.5 73.8702 48.3C73.5369 48.1 73.1569 48 72.7302 48C72.2902 48 71.8969 48.1 71.5502 48.3C71.2169 48.5 70.9502 48.7933 70.7502 49.18C70.5502 49.5533 70.4502 50.0133 70.4502 50.56C70.4502 51.1067 70.5502 51.58 70.7502 51.98C70.9502 52.3667 71.2169 52.66 71.5502 52.86C71.8969 53.06 72.2902 53.16 72.7302 53.16ZM75.1102 56V54.14L75.1302 50.56L74.9302 46.98V41.16H78.7302V56H75.1102ZM87.7951 56V53.98L87.5351 53.48V49.76C87.5351 49.16 87.3484 48.7 86.9751 48.38C86.6151 48.0467 86.0351 47.88 85.2351 47.88C84.7151 47.88 84.1884 47.9667 83.6551 48.14C83.1217 48.3 82.6684 48.5267 82.2951 48.82L81.0151 46.24C81.6284 45.84 82.3617 45.5333 83.2151 45.32C84.0817 45.0933 84.9417 44.98 85.7951 44.98C87.5551 44.98 88.9151 45.3867 89.8751 46.2C90.8484 47 91.3351 48.26 91.3351 49.98V56H87.7951ZM84.5951 56.18C83.7284 56.18 82.9951 56.0333 82.3951 55.74C81.7951 55.4467 81.3351 55.0467 81.0151 54.54C80.7084 54.0333 80.5551 53.4667 80.5551 52.84C80.5551 52.1733 80.7217 51.6 81.0551 51.12C81.4017 50.6267 81.9284 50.2533 82.6351 50C83.3417 49.7333 84.2551 49.6 85.3751 49.6H87.9351V51.58H85.8951C85.2817 51.58 84.8484 51.68 84.5951 51.88C84.3551 52.08 84.2351 52.3467 84.2351 52.68C84.2351 53.0133 84.3617 53.28 84.6151 53.48C84.8684 53.68 85.2151 53.78 85.6551 53.78C86.0684 53.78 86.4417 53.68 86.7751 53.48C87.1217 53.2667 87.3751 52.9467 87.5351 52.52L88.0551 53.92C87.8551 54.6667 87.4617 55.2333 86.8751 55.62C86.3017 55.9933 85.5417 56.18 84.5951 56.18ZM99.3104 56.18C98.1237 56.18 97.0704 55.94 96.1504 55.46C95.2304 54.98 94.5037 54.32 93.9704 53.48C93.4504 52.6267 93.1904 51.6533 93.1904 50.56C93.1904 49.4667 93.4504 48.5 93.9704 47.66C94.5037 46.82 95.2304 46.1667 96.1504 45.7C97.0704 45.22 98.1237 44.98 99.3104 44.98C100.497 44.98 101.55 45.22 102.47 45.7C103.404 46.1667 104.13 46.82 104.65 47.66C105.17 48.5 105.43 49.4667 105.43 50.56C105.43 51.6533 105.17 52.6267 104.65 53.48C104.13 54.32 103.404 54.98 102.47 55.46C101.55 55.94 100.497 56.18 99.3104 56.18ZM99.3104 53.16C99.7504 53.16 100.137 53.06 100.47 52.86C100.817 52.66 101.09 52.3667 101.29 51.98C101.49 51.58 101.59 51.1067 101.59 50.56C101.59 50.0133 101.49 49.5533 101.29 49.18C101.09 48.7933 100.817 48.5 100.47 48.3C100.137 48.1 99.7504 48 99.3104 48C98.8837 48 98.4971 48.1 98.1504 48.3C97.8171 48.5 97.5437 48.7933 97.3304 49.18C97.1304 49.5533 97.0304 50.0133 97.0304 50.56C97.0304 51.1067 97.1304 51.58 97.3304 51.98C97.5437 52.3667 97.8171 52.66 98.1504 52.86C98.4971 53.06 98.8837 53.16 99.3104 53.16ZM111.131 56.18C110.211 56.18 109.311 56.0733 108.431 55.86C107.564 55.6467 106.864 55.38 106.331 55.06L107.471 52.46C107.977 52.7667 108.571 53.0133 109.251 53.2C109.931 53.3733 110.597 53.46 111.251 53.46C111.891 53.46 112.331 53.3933 112.571 53.26C112.824 53.1267 112.951 52.9467 112.951 52.72C112.951 52.5067 112.831 52.3533 112.591 52.26C112.364 52.1533 112.057 52.0733 111.671 52.02C111.297 51.9667 110.884 51.9067 110.431 51.84C109.977 51.7733 109.517 51.6867 109.051 51.58C108.597 51.46 108.177 51.2867 107.791 51.06C107.417 50.82 107.117 50.5 106.891 50.1C106.664 49.7 106.551 49.1933 106.551 48.58C106.551 47.8867 106.751 47.2733 107.151 46.74C107.564 46.1933 108.164 45.7667 108.951 45.46C109.737 45.14 110.697 44.98 111.831 44.98C112.591 44.98 113.357 45.06 114.131 45.22C114.917 45.3667 115.577 45.5933 116.111 45.9L114.971 48.48C114.437 48.1733 113.904 47.9667 113.371 47.86C112.837 47.74 112.331 47.68 111.851 47.68C111.211 47.68 110.757 47.7533 110.491 47.9C110.237 48.0467 110.111 48.2267 110.111 48.44C110.111 48.6533 110.224 48.82 110.451 48.94C110.677 49.0467 110.977 49.1333 111.351 49.2C111.737 49.2533 112.157 49.3133 112.611 49.38C113.064 49.4333 113.517 49.52 113.971 49.64C114.437 49.76 114.857 49.94 115.231 50.18C115.617 50.4067 115.924 50.72 116.151 51.12C116.377 51.5067 116.491 52.0067 116.491 52.62C116.491 53.2867 116.284 53.8867 115.871 54.42C115.471 54.9533 114.871 55.38 114.071 55.7C113.284 56.02 112.304 56.18 111.131 56.18Z" fill="white"/>
</svg>
